ffmpeg started on 2026-01-13 at 11:08:10
Report written to "D:\Convert\FFMetrics\reports\psnr_report-6.txt"
Log level: 32
Command line:
ffmpeg -hide_banner -nostdin -r 24000/1001 -i "F:\\Convert\\files\\[DC] Make Heroine ga Oosugiru - 07_Telegram_HEVC(72).mkv" -r 24000/1001 -i "F:\\Convert\\files\\[DC] Make Heroine ga Oosugiru - 07_Telegram.mp4" -lavfi "[0:v]settb=AVTB,setpts=PTS-STARTPTS,format=pix_fmts=yuv420p10le,fps=24000/1001,scale=1920:1080:flags=lanczos:param0=3:out_range=limited:out_color_matrix=bt709:out_chroma_loc=left,setsar=1/1,setdar=(1920/1080)*(1/1),colorspace=format=yuv420p10:range=tv:primaries=bt709:trc=bt709:space=bt709:fast=0[main];[1:v]settb=AVTB,setpts=PTS-STARTPTS,format=pix_fmts=yuv420p,fps=24000/1001,scale=1920:1080:flags=lanczos:param0=3:out_range=limited:out_color_matrix=bt709:out_chroma_loc=left,setsar=1.000,setdar=1.778,colorspace=format=yuv420p:range=tv:primaries=bt709:trc=bt709:space=bt709:fast=0[ref];[main][ref]psnr=eof_action=endall:stats_file='D\\:/Convert/FFMetrics/logs/psnr_logfile-6.txt'" -f null -
Input #0, matroska,webm, from 'F:\Convert\files\[DC] Make Heroine ga Oosugiru - 07_Telegram_HEVC(72).mkv':
  Metadata:
    COMPATIBLE_BRANDS: isomiso2avc1mp41
    MAJOR_BRAND     : isom
    MINOR_VERSION   : 512
    ENCODER         : Lavf61.7.100
  Duration: 00:24:06.79, start: -0.021000, bitrate: 984 kb/s
  Stream #0:0: Video: hevc (Main 10), yuv420p10le(tv, bt709, progressive), 1920x1080 [SAR 1:1 DAR 16:9], 23.98 fps, 23.98 tbr, 1k tbn (default)
      Metadata:
        HANDLER_NAME    : VideoHandler
        VENDOR_ID       : [0][0][0][0]
        ENCODER         : Lavc61.19.100 libx265
        BPS             : 786922
        DURATION        : 00:24:06.569708333
        NUMBER_OF_FRAMES: 34683
        NUMBER_OF_BYTES : 142292276
        _STATISTICS_WRITING_APP: mkvpropedit v94.0 ('Initiate') 64-bit
        _STATISTICS_WRITING_DATE_UTC: 2026-01-11 14:23:36
        _STATISTICS_TAGS: BPS DURATION NUMBER_OF_FRAMES NUMBER_OF_BYTES
  Stream #0:1: Audio: aac (LC), 48000 Hz, stereo, fltp (default)
      Metadata:
        HANDLER_NAME    : SoundHandler
        VENDOR_ID       : [0][0][0][0]
        ENCODER         : Lavc61.19.100 aac
        BPS             : 193194
        DURATION        : 00:24:06.784000000
        NUMBER_OF_FRAMES: 67819
        NUMBER_OF_BYTES : 34938755
        _STATISTICS_WRITING_APP: mkvpropedit v94.0 ('Initiate') 64-bit
        _STATISTICS_WRITING_DATE_UTC: 2026-01-11 14:23:36
        _STATISTICS_TAGS: BPS DURATION NUMBER_OF_FRAMES NUMBER_OF_BYTES
Input #1, mov,mp4,m4a,3gp,3g2,mj2, from 'F:\Convert\files\[DC] Make Heroine ga Oosugiru - 07_Telegram.mp4':
  Metadata:
    major_brand     : isom
    minor_version   : 512
    compatible_brands: isomiso2avc1mp41
    encoder         : Lavf60.16.100
  Duration: 00:24:06.74, start: 0.000000, bitrate: 3764 kb/s
  Stream #1:0[0x1](und): Video: h264 (High) (avc1 / 0x31637661), yuv420p(tv, bt709, progressive), 1920x1080 [SAR 1:1 DAR 16:9], 3616 kb/s, 23.98 fps, 23.98 tbr, 24k tbn (default)
      Metadata:
        handler_name    : VideoHandler
        vendor_id       : [0][0][0][0]
        encoder         : Lavc60.31.102 h264_qsv
  Stream #1:1[0x2](und): Audio: aac (HE-AACv2) (mp4a / 0x6134706D), 48000 Hz, stereo, fltp, 144 kb/s (default)
      Metadata:
        handler_name    : SoundHandler
        vendor_id       : [0][0][0][0]
Stream mapping:
  Stream #0:0 (hevc) -> settb:default
  Stream #1:0 (h264) -> settb:default
  psnr:default -> Stream #0:0 (wrapped_avframe)
  Stream #0:1 -> #0:1 (aac (native) -> pcm_s16le (native))
Output #0, null, to 'pipe:':
  Metadata:
    COMPATIBLE_BRANDS: isomiso2avc1mp41
    MAJOR_BRAND     : isom
    MINOR_VERSION   : 512
    encoder         : Lavf61.7.100
  Stream #0:0: Video: wrapped_avframe, yuv420p10le(tv, bt709, progressive), 1920x1080 [SAR 1:1 DAR 16:9], q=2-31, 200 kb/s, 23.98 fps, 23.98 tbn
      Metadata:
        encoder         : Lavc61.19.100 wrapped_avframe
  Stream #0:1: Audio: pcm_s16le, 48000 Hz, stereo, s16, 1536 kb/s (default)
      Metadata:
        HANDLER_NAME    : SoundHandler
        VENDOR_ID       : [0][0][0][0]
        _STATISTICS_TAGS: BPS DURATION NUMBER_OF_FRAMES NUMBER_OF_BYTES
        BPS             : 193194
        DURATION        : 00:24:06.784000000
        NUMBER_OF_FRAMES: 67819
        NUMBER_OF_BYTES : 34938755
        _STATISTICS_WRITING_APP: mkvpropedit v94.0 ('Initiate') 64-bit
        _STATISTICS_WRITING_DATE_UTC: 2026-01-11 14:23:36
        encoder         : Lavc61.19.100 pcm_s16le
frame=  125 fps=0.0 q=-0.0 size=N/A time=00:00:05.21 bitrate=N/A speed=10.3x    frame=  312 fps=302 q=-0.0 size=N/A time=00:00:13.01 bitrate=N/A speed=12.6x    frame=  486 fps=315 q=-0.0 size=N/A time=00:00:20.27 bitrate=N/A speed=13.1x    frame=  674 fps=328 q=-0.0 size=N/A time=00:00:28.11 bitrate=N/A speed=13.7x    frame=  874 fps=339 q=-0.0 size=N/A time=00:00:36.45 bitrate=N/A speed=14.1x    frame= 1000 fps=322 q=-0.0 size=N/A time=00:00:41.70 bitrate=N/A speed=13.4x    frame= 1158 fps=320 q=-0.0 size=N/A time=00:00:48.29 bitrate=N/A speed=13.4x    frame= 1317 fps=319 q=-0.0 size=N/A time=00:00:54.92 bitrate=N/A speed=13.3x    frame= 1476 fps=317 q=-0.0 size=N/A time=00:01:01.56 bitrate=N/A speed=13.2x    frame= 1586 fps=307 q=-0.0 size=N/A time=00:01:06.14 bitrate=N/A speed=12.8x    frame= 1719 fps=303 q=-0.0 size=N/A time=00:01:11.69 bitrate=N/A speed=12.6x    frame= 1889 fps=305 q=-0.0 size=N/A time=00:01:18.78 bitrate=N/A speed=12.7x    frame= 2043 fps=304 q=-0.0 size=N/A time=00:01:25.21 bitrate=N/A speed=12.7x    frame= 2151 fps=297 q=-0.0 size=N/A time=00:01:29.71 bitrate=N/A speed=12.4x    frame= 2305 fps=298 q=-0.0 size=N/A time=00:01:36.13 bitrate=N/A speed=12.4x    frame= 2446 fps=296 q=-0.0 size=N/A time=00:01:42.01 bitrate=N/A speed=12.4x    frame= 2582 fps=294 q=-0.0 size=N/A time=00:01:47.69 bitrate=N/A speed=12.3x    frame= 2749 fps=296 q=-0.0 size=N/A time=00:01:54.65 bitrate=N/A speed=12.3x    frame= 2919 fps=298 q=-0.0 size=N/A time=00:02:01.74 bitrate=N/A speed=12.4x    frame= 3097 fps=300 q=-0.0 size=N/A time=00:02:09.17 bitrate=N/A speed=12.5x    frame= 3290 fps=303 q=-0.0 size=N/A time=00:02:17.22 bitrate=N/A speed=12.7x    frame= 3475 fps=306 q=-0.0 size=N/A time=00:02:24.93 bitrate=N/A speed=12.8x    frame= 3669 fps=309 q=-0.0 size=N/A time=00:02:33.02 bitrate=N/A speed=12.9x    frame= 3810 fps=308 q=-0.0 size=N/A time=00:02:38.90 bitrate=N/A speed=12.8x    frame= 4001 fps=310 q=-0.0 size=N/A time=00:02:46.87 bitrate=N/A speed=12.9x    frame= 4192 fps=312 q=-0.0 size=N/A time=00:02:54.84 bitrate=N/A speed=  13x    frame= 4380 fps=314 q=-0.0 size=N/A time=00:03:02.68 bitrate=N/A speed=13.1x    frame= 4568 fps=316 q=-0.0 size=N/A time=00:03:10.52 bitrate=N/A speed=13.2x    frame= 4759 fps=318 q=-0.0 size=N/A time=00:03:18.48 bitrate=N/A speed=13.3x    frame= 4943 fps=319 q=-0.0 size=N/A time=00:03:26.16 bitrate=N/A speed=13.3x    frame= 5127 fps=321 q=-0.0 size=N/A time=00:03:33.83 bitrate=N/A speed=13.4x    frame= 5315 fps=322 q=-0.0 size=N/A time=00:03:41.67 bitrate=N/A speed=13.4x    frame= 5502 fps=323 q=-0.0 size=N/A time=00:03:49.47 bitrate=N/A speed=13.5x    frame= 5677 fps=324 q=-0.0 size=N/A time=00:03:56.77 bitrate=N/A speed=13.5x    frame= 5862 fps=325 q=-0.0 size=N/A time=00:04:04.49 bitrate=N/A speed=13.5x    frame= 6044 fps=325 q=-0.0 size=N/A time=00:04:12.08 bitrate=N/A speed=13.6x    frame= 6192 fps=324 q=-0.0 size=N/A time=00:04:18.25 bitrate=N/A speed=13.5x    frame= 6352 fps=324 q=-0.0 size=N/A time=00:04:24.93 bitrate=N/A speed=13.5x    frame= 6548 fps=325 q=-0.0 size=N/A time=00:04:33.10 bitrate=N/A speed=13.6x    frame= 6732 fps=326 q=-0.0 size=N/A time=00:04:40.78 bitrate=N/A speed=13.6x    frame= 6918 fps=327 q=-0.0 size=N/A time=00:04:48.53 bitrate=N/A speed=13.6x    frame= 7098 fps=327 q=-0.0 size=N/A time=00:04:56.04 bitrate=N/A speed=13.7x    frame= 7276 fps=328 q=-0.0 size=N/A time=00:05:03.46 bitrate=N/A speed=13.7x    frame= 7462 fps=328 q=-0.0 size=N/A time=00:05:11.22 bitrate=N/A speed=13.7x    frame= 7637 fps=329 q=-0.0 size=N/A time=00:05:18.52 bitrate=N/A speed=13.7x    frame= 7810 fps=329 q=-0.0 size=N/A time=00:05:25.74 bitrate=N/A speed=13.7x    frame= 7987 fps=329 q=-0.0 size=N/A time=00:05:33.12 bitrate=N/A speed=13.7x    frame= 8151 fps=329 q=-0.0 size=N/A time=00:05:39.96 bitrate=N/A speed=13.7x    frame= 8329 fps=329 q=-0.0 size=N/A time=00:05:47.38 bitrate=N/A speed=13.7x    frame= 8529 fps=330 q=-0.0 size=N/A time=00:05:55.73 bitrate=N/A speed=13.8x    frame= 8660 fps=329 q=-0.0 size=N/A time=00:06:01.19 bitrate=N/A speed=13.7x    frame= 8833 fps=329 q=-0.0 size=N/A time=00:06:08.40 bitrate=N/A speed=13.7x    frame= 9013 fps=329 q=-0.0 size=N/A time=00:06:15.91 bitrate=N/A speed=13.7x    frame= 9191 fps=330 q=-0.0 size=N/A time=00:06:23.34 bitrate=N/A speed=13.8x    frame= 9379 fps=330 q=-0.0 size=N/A time=00:06:31.18 bitrate=N/A speed=13.8x    frame= 9572 fps=331 q=-0.0 size=N/A time=00:06:39.23 bitrate=N/A speed=13.8x    frame= 9756 fps=332 q=-0.0 size=N/A time=00:06:46.90 bitrate=N/A speed=13.8x    frame= 9944 fps=332 q=-0.0 size=N/A time=00:06:54.74 bitrate=N/A speed=13.9x    frame=10048 fps=330 q=-0.0 size=N/A time=00:06:59.08 bitrate=N/A speed=13.8x    frame=10227 fps=330 q=-0.0 size=N/A time=00:07:06.55 bitrate=N/A speed=13.8x    frame=10415 fps=331 q=-0.0 size=N/A time=00:07:14.39 bitrate=N/A speed=13.8x    frame=10608 fps=332 q=-0.0 size=N/A time=00:07:22.44 bitrate=N/A speed=13.8x    frame=10789 fps=332 q=-0.0 size=N/A time=00:07:29.99 bitrate=N/A speed=13.8x    frame=10982 fps=332 q=-0.0 size=N/A time=00:07:38.04 bitrate=N/A speed=13.9x    frame=11163 fps=333 q=-0.0 size=N/A time=00:07:45.59 bitrate=N/A speed=13.9x    frame=11341 fps=333 q=-0.0 size=N/A time=00:07:53.01 bitrate=N/A speed=13.9x    frame=11523 fps=333 q=-0.0 size=N/A time=00:08:00.60 bitrate=N/A speed=13.9x    frame=11715 fps=334 q=-0.0 size=N/A time=00:08:08.61 bitrate=N/A speed=13.9x    frame=11890 fps=334 q=-0.0 size=N/A time=00:08:15.91 bitrate=N/A speed=13.9x    frame=12071 fps=334 q=-0.0 size=N/A time=00:08:23.46 bitrate=N/A speed=13.9x    frame=12268 fps=335 q=-0.0 size=N/A time=00:08:31.67 bitrate=N/A speed=  14x    frame=12412 fps=334 q=-0.0 size=N/A time=00:08:37.68 bitrate=N/A speed=13.9x    frame=12599 fps=334 q=-0.0 size=N/A time=00:08:45.48 bitrate=N/A speed=13.9x    frame=12782 fps=335 q=-0.0 size=N/A time=00:08:53.11 bitrate=N/A speed=  14x    frame=12972 fps=335 q=-0.0 size=N/A time=00:09:01.04 bitrate=N/A speed=  14x    frame=13152 fps=335 q=-0.0 size=N/A time=00:09:08.54 bitrate=N/A speed=  14x    frame=13343 fps=336 q=-0.0 size=N/A time=00:09:16.51 bitrate=N/A speed=  14x    frame=13519 fps=336 q=-0.0 size=N/A time=00:09:23.85 bitrate=N/A speed=  14x    frame=13705 fps=336 q=-0.0 size=N/A time=00:09:31.61 bitrate=N/A speed=  14x    frame=13897 fps=337 q=-0.0 size=N/A time=00:09:39.62 bitrate=N/A speed=  14x    frame=14074 fps=337 q=-0.0 size=N/A time=00:09:47.00 bitrate=N/A speed=  14x    frame=14250 fps=337 q=-0.0 size=N/A time=00:09:54.34 bitrate=N/A speed=  14x    frame=14437 fps=337 q=-0.0 size=N/A time=00:10:02.14 bitrate=N/A speed=14.1x    frame=14621 fps=337 q=-0.0 size=N/A time=00:10:09.81 bitrate=N/A speed=14.1x    frame=14794 fps=337 q=-0.0 size=N/A time=00:10:17.03 bitrate=N/A speed=14.1x    frame=14947 fps=337 q=-0.0 size=N/A time=00:10:23.41 bitrate=N/A speed=  14x    frame=15115 fps=337 q=-0.0 size=N/A time=00:10:30.42 bitrate=N/A speed=  14x    frame=15284 fps=337 q=-0.0 size=N/A time=00:10:37.47 bitrate=N/A speed=  14x    frame=15474 fps=337 q=-0.0 size=N/A time=00:10:45.39 bitrate=N/A speed=  14x    frame=15661 fps=337 q=-0.0 size=N/A time=00:10:53.19 bitrate=N/A speed=14.1x    frame=15838 fps=337 q=-0.0 size=N/A time=00:11:00.57 bitrate=N/A speed=14.1x    frame=16023 fps=337 q=-0.0 size=N/A time=00:11:08.29 bitrate=N/A speed=14.1x    frame=16198 fps=337 q=-0.0 size=N/A time=00:11:15.59 bitrate=N/A speed=14.1x    frame=16385 fps=338 q=-0.0 size=N/A time=00:11:23.39 bitrate=N/A speed=14.1x    frame=16578 fps=338 q=-0.0 size=N/A time=00:11:31.44 bitrate=N/A speed=14.1x    frame=16769 fps=338 q=-0.0 size=N/A time=00:11:39.40 bitrate=N/A speed=14.1x    frame=16951 fps=339 q=-0.0 size=N/A time=00:11:46.99 bitrate=N/A speed=14.1x    frame=17148 fps=339 q=-0.0 size=N/A time=00:11:55.21 bitrate=N/A speed=14.1x    frame=17306 fps=339 q=-0.0 size=N/A time=00:12:01.80 bitrate=N/A speed=14.1x    frame=17477 fps=339 q=-0.0 size=N/A time=00:12:08.93 bitrate=N/A speed=14.1x    frame=17652 fps=339 q=-0.0 size=N/A time=00:12:16.23 bitrate=N/A speed=14.1x    frame=17836 fps=339 q=-0.0 size=N/A time=00:12:23.90 bitrate=N/A speed=14.1x    frame=18018 fps=339 q=-0.0 size=N/A time=00:12:31.50 bitrate=N/A speed=14.1x    frame=18200 fps=339 q=-0.0 size=N/A time=00:12:39.09 bitrate=N/A speed=14.1x    frame=18367 fps=339 q=-0.0 size=N/A time=00:12:46.05 bitrate=N/A speed=14.1x    frame=18553 fps=339 q=-0.0 size=N/A time=00:12:53.81 bitrate=N/A speed=14.1x    frame=18735 fps=339 q=-0.0 size=N/A time=00:13:01.40 bitrate=N/A speed=14.2x    frame=18919 fps=339 q=-0.0 size=N/A time=00:13:09.07 bitrate=N/A speed=14.2x    frame=19117 fps=340 q=-0.0 size=N/A time=00:13:17.33 bitrate=N/A speed=14.2x    frame=19306 fps=340 q=-0.0 size=N/A time=00:13:25.22 bitrate=N/A speed=14.2x    frame=19496 fps=340 q=-0.0 size=N/A time=00:13:33.14 bitrate=N/A speed=14.2x    frame=19679 fps=341 q=-0.0 size=N/A time=00:13:40.77 bitrate=N/A speed=14.2x    frame=19827 fps=340 q=-0.0 size=N/A time=00:13:46.95 bitrate=N/A speed=14.2x    frame=20022 fps=340 q=-0.0 size=N/A time=00:13:55.08 bitrate=N/A speed=14.2x    frame=20215 fps=341 q=-0.0 size=N/A time=00:14:03.13 bitrate=N/A speed=14.2x    frame=20390 fps=341 q=-0.0 size=N/A time=00:14:10.43 bitrate=N/A speed=14.2x    frame=20566 fps=341 q=-0.0 size=N/A time=00:14:17.77 bitrate=N/A speed=14.2x    frame=20746 fps=341 q=-0.0 size=N/A time=00:14:25.28 bitrate=N/A speed=14.2x    frame=20931 fps=341 q=-0.0 size=N/A time=00:14:32.99 bitrate=N/A speed=14.2x    frame=21122 fps=341 q=-0.0 size=N/A time=00:14:40.96 bitrate=N/A speed=14.2x    frame=21307 fps=341 q=-0.0 size=N/A time=00:14:48.67 bitrate=N/A speed=14.2x    frame=21499 fps=341 q=-0.0 size=N/A time=00:14:56.68 bitrate=N/A speed=14.2x    frame=21695 fps=342 q=-0.0 size=N/A time=00:15:04.86 bitrate=N/A speed=14.3x    frame=21883 fps=342 q=-0.0 size=N/A time=00:15:12.70 bitrate=N/A speed=14.3x    frame=22067 fps=342 q=-0.0 size=N/A time=00:15:20.37 bitrate=N/A speed=14.3x    frame=22247 fps=342 q=-0.0 size=N/A time=00:15:27.88 bitrate=N/A speed=14.3x    frame=22413 fps=342 q=-0.0 size=N/A time=00:15:34.80 bitrate=N/A speed=14.3x    frame=22609 fps=342 q=-0.0 size=N/A time=00:15:42.98 bitrate=N/A speed=14.3x    frame=22786 fps=342 q=-0.0 size=N/A time=00:15:50.36 bitrate=N/A speed=14.3x    frame=22978 fps=343 q=-0.0 size=N/A time=00:15:58.37 bitrate=N/A speed=14.3x    frame=23175 fps=343 q=-0.0 size=N/A time=00:16:06.59 bitrate=N/A speed=14.3x    frame=23359 fps=343 q=-0.0 size=N/A time=00:16:14.26 bitrate=N/A speed=14.3x    frame=23557 fps=343 q=-0.0 size=N/A time=00:16:22.52 bitrate=N/A speed=14.3x    frame=23752 fps=344 q=-0.0 size=N/A time=00:16:30.65 bitrate=N/A speed=14.3x    frame=23943 fps=344 q=-0.0 size=N/A time=00:16:38.62 bitrate=N/A speed=14.3x    frame=24138 fps=344 q=-0.0 size=N/A time=00:16:46.75 bitrate=N/A speed=14.3x    frame=24326 fps=344 q=-0.0 size=N/A time=00:16:54.59 bitrate=N/A speed=14.4x    frame=24504 fps=344 q=-0.0 size=N/A time=00:17:02.02 bitrate=N/A speed=14.4x    frame=24693 fps=344 q=-0.0 size=N/A time=00:17:09.90 bitrate=N/A speed=14.4x    frame=24841 fps=344 q=-0.0 size=N/A time=00:17:16.07 bitrate=N/A speed=14.3x    frame=25029 fps=344 q=-0.0 size=N/A time=00:17:23.91 bitrate=N/A speed=14.3x    frame=25215 fps=344 q=-0.0 size=N/A time=00:17:31.67 bitrate=N/A speed=14.4x    frame=25410 fps=344 q=-0.0 size=N/A time=00:17:39.80 bitrate=N/A speed=14.4x    frame=25601 fps=345 q=-0.0 size=N/A time=00:17:47.77 bitrate=N/A speed=14.4x    frame=25792 fps=345 q=-0.0 size=N/A time=00:17:55.74 bitrate=N/A speed=14.4x    frame=25978 fps=345 q=-0.0 size=N/A time=00:18:03.49 bitrate=N/A speed=14.4x    frame=26158 fps=345 q=-0.0 size=N/A time=00:18:11.00 bitrate=N/A speed=14.4x    frame=26337 fps=345 q=-0.0 size=N/A time=00:18:18.47 bitrate=N/A speed=14.4x    frame=26527 fps=345 q=-0.0 size=N/A time=00:18:26.39 bitrate=N/A speed=14.4x    frame=26717 fps=345 q=-0.0 size=N/A time=00:18:34.32 bitrate=N/A speed=14.4x    frame=26902 fps=345 q=-0.0 size=N/A time=00:18:42.03 bitrate=N/A speed=14.4x    frame=27079 fps=345 q=-0.0 size=N/A time=00:18:49.41 bitrate=N/A speed=14.4x    frame=27250 fps=345 q=-0.0 size=N/A time=00:18:56.55 bitrate=N/A speed=14.4x    frame=27395 fps=345 q=-0.0 size=N/A time=00:19:02.59 bitrate=N/A speed=14.4x    frame=27582 fps=345 q=-0.0 size=N/A time=00:19:10.39 bitrate=N/A speed=14.4x    frame=27753 fps=345 q=-0.0 size=N/A time=00:19:17.53 bitrate=N/A speed=14.4x    frame=27945 fps=345 q=-0.0 size=N/A time=00:19:25.53 bitrate=N/A speed=14.4x    frame=28127 fps=345 q=-0.0 size=N/A time=00:19:33.13 bitrate=N/A speed=14.4x    frame=28307 fps=345 q=-0.0 size=N/A time=00:19:40.63 bitrate=N/A speed=14.4x    frame=28492 fps=345 q=-0.0 size=N/A time=00:19:48.35 bitrate=N/A speed=14.4x    frame=28670 fps=345 q=-0.0 size=N/A time=00:19:55.77 bitrate=N/A speed=14.4x    frame=28839 fps=345 q=-0.0 size=N/A time=00:20:02.82 bitrate=N/A speed=14.4x    frame=29002 fps=345 q=-0.0 size=N/A time=00:20:09.62 bitrate=N/A speed=14.4x    frame=29180 fps=345 q=-0.0 size=N/A time=00:20:17.04 bitrate=N/A speed=14.4x    frame=29353 fps=345 q=-0.0 size=N/A time=00:20:24.26 bitrate=N/A speed=14.4x    frame=29515 fps=345 q=-0.0 size=N/A time=00:20:31.02 bitrate=N/A speed=14.4x    frame=29654 fps=344 q=-0.0 size=N/A time=00:20:36.81 bitrate=N/A speed=14.4x    frame=29820 fps=344 q=-0.0 size=N/A time=00:20:43.74 bitrate=N/A speed=14.3x    frame=29978 fps=344 q=-0.0 size=N/A time=00:20:50.33 bitrate=N/A speed=14.3x    frame=30137 fps=344 q=-0.0 size=N/A time=00:20:56.96 bitrate=N/A speed=14.3x    frame=30307 fps=344 q=-0.0 size=N/A time=00:21:04.05 bitrate=N/A speed=14.3x    frame=30493 fps=344 q=-0.0 size=N/A time=00:21:11.81 bitrate=N/A speed=14.3x    frame=30666 fps=344 q=-0.0 size=N/A time=00:21:19.02 bitrate=N/A speed=14.3x    frame=30845 fps=344 q=-0.0 size=N/A time=00:21:26.49 bitrate=N/A speed=14.3x    frame=30970 fps=343 q=-0.0 size=N/A time=00:21:31.70 bitrate=N/A speed=14.3x    frame=31108 fps=343 q=-0.0 size=N/A time=00:21:37.46 bitrate=N/A speed=14.3x    frame=31285 fps=343 q=-0.0 size=N/A time=00:21:44.84 bitrate=N/A speed=14.3x    frame=31449 fps=342 q=-0.0 size=N/A time=00:21:51.68 bitrate=N/A speed=14.3x    frame=31643 fps=343 q=-0.0 size=N/A time=00:21:59.77 bitrate=N/A speed=14.3x    frame=31818 fps=343 q=-0.0 size=N/A time=00:22:07.07 bitrate=N/A speed=14.3x    frame=31989 fps=343 q=-0.0 size=N/A time=00:22:14.20 bitrate=N/A speed=14.3x    frame=32181 fps=343 q=-0.0 size=N/A time=00:22:22.21 bitrate=N/A speed=14.3x    frame=32364 fps=343 q=-0.0 size=N/A time=00:22:29.84 bitrate=N/A speed=14.3x    frame=32547 fps=343 q=-0.0 size=N/A time=00:22:37.48 bitrate=N/A speed=14.3x    frame=32695 fps=343 q=-0.0 size=N/A time=00:22:43.65 bitrate=N/A speed=14.3x    frame=32853 fps=342 q=-0.0 size=N/A time=00:22:50.24 bitrate=N/A speed=14.3x    frame=33033 fps=342 q=-0.0 size=N/A time=00:22:57.75 bitrate=N/A speed=14.3x    frame=33185 fps=342 q=-0.0 size=N/A time=00:23:04.09 bitrate=N/A speed=14.3x    frame=33338 fps=342 q=-0.0 size=N/A time=00:23:10.47 bitrate=N/A speed=14.3x    frame=33496 fps=342 q=-0.0 size=N/A time=00:23:17.06 bitrate=N/A speed=14.3x    frame=33646 fps=341 q=-0.0 size=N/A time=00:23:23.31 bitrate=N/A speed=14.2x    frame=33784 fps=341 q=-0.0 size=N/A time=00:23:29.07 bitrate=N/A speed=14.2x    frame=33910 fps=341 q=-0.0 size=N/A time=00:23:34.32 bitrate=N/A speed=14.2x    frame=34065 fps=340 q=-0.0 size=N/A time=00:23:40.79 bitrate=N/A speed=14.2x    frame=34233 fps=340 q=-0.0 size=N/A time=00:23:47.80 bitrate=N/A speed=14.2x    frame=34362 fps=340 q=-0.0 size=N/A time=00:23:53.18 bitrate=N/A speed=14.2x    frame=34505 fps=339 q=-0.0 size=N/A time=00:23:59.14 bitrate=N/A speed=14.2x    [Parsed_psnr_16 @ 000001f5b917bbc0] PSNR y:48.959029 u:50.330202 v:50.379644 average:49.376365 min:38.015938 max:inf
[out#0/null @ 000001f5abc68a00] video:14903KiB audio:271276KiB subtitle:0KiB other streams:0KiB global headers:0KiB muxing overhead: unknown
frame=34683 fps=340 q=-0.0 Lsize=N/A time=00:24:06.57 bitrate=N/A speed=14.2x    
